PathFileType	4	(X/Y/Z)	Walk8.trc
DataRate	CameraRate	NumFrames	NumMarkers	Units	OrigDataRate	OrigDataStartFrame	OrigNumFrames
200.000000	200.000000	8	61	mm	200.000000	194	439
Frame#	Times		LFHD		RFHD		LBHD		CLAV		STRN		LASI		RASI		RACR1		RUA1		RFA1		RWRR		RWRU		RCAR		LACR1		LUA1		LFA1		LWRU		LCAR		RTH3		RTH2		RTH4		RMFC		RTB1		RTB3		RTB4		RMT5		LTH1		LTH3		LTH2		LTH4		LLFC		LTB1		LTB3		LTB2		LTB4		LMMAL		LToe		RLFC		RTH1		RElbow		RToe		RTB2		T10		LElbow		RMT1		RMMAL		LMFC		LPSI		RBack		LWRR		LMT5		RBHD		RLMAL		LCAL		RPSI		RCAL		LLMAL		RElbowM		C7		LMT1		LElbowM
			X1	Y1	Z1	X2	Y2	Z2	X3	Y3	Z3	X4	Y4	Z4	X5	Y5	Z5	X6	Y6	Z6	X7	Y7	Z7	X8	Y8	Z8	X9	Y9	Z9	X10	Y10	Z10	X11	Y11	Z11	X12	Y12	Z12	X13	Y13	Z13	X14	Y14	Z14	X15	Y15	Z15	X16	Y16	Z16	X17	Y17	Z17	X18	Y18	Z18	X19	Y19	Z19	X20	Y20	Z20	X21	Y21	Z21	X22	Y22	Z22	X23	Y23	Z23	X24	Y24	Z24	X25	Y25	Z25	X26	Y26	Z26	X27	Y27	Z27	X28	Y28	Z28	X29	Y29	Z29	X30	Y30	Z30	X31	Y31	Z31	X32	Y32	Z32	X33	Y33	Z33	X34	Y34	Z34	X35	Y35	Z35	X36	Y36	Z36	X37	Y37	Z37	X38	Y38	Z38	X39	Y39	Z39	X40	Y40	Z40	X41	Y41	Z41	X42	Y42	Z42	X43	Y43	Z43	X44	Y44	Z44	X45	Y45	Z45	X46	Y46	Z46	X47	Y47	Z47	X48	Y48	Z48	X49	Y49	Z49	X50	Y50	Z50	X51	Y51	Z51	X52	Y52	Z52	X53	Y53	Z53	X54	Y54	Z54	X55	Y55	Z55	X56	Y56	Z56	X57	Y57	Z57	X58	Y58	Z58	X59	Y59	Z59	X60	Y60	Z60	X61	Y61	Z61

194	0.97	-130.29	1580.8	-52.594	-136.62	1584.3	46.731	-270.77	1513.9	-81.421	-170.11	1302.9	-2.5017	-153.12	1167.4	0.38125	-203.74	908.65	-115.74	-206.67	906.59	133.4	-238.7	1338.3	164.02	-245.25	1168.1	215.77	-188.49	885.18	270.9	-166.92	767.17	271.14	-112.5	787.33	234.53	-110.11	719.21	282.42	-240.5	1353.1	-156.38	-270.33	1182.4	-219.76	-294.37	897.15	-282.06	-243.16	782.76	-278.83	-275.44	720.41	-314.53	-220.3	565.46	175.42	-178.24	660.6	162.15	-229.84	648.69	187.27	-228.51	412.36	26.565	-279.42	323.18	125.29	-431.37	239.29	115.84	-355.99	280.62	122.24	-549.82	113.03	141.54	-232.94	740.12	-183.26	-200.91	575.34	-143.06	-161.97	672.98	-148.66	-218.16	657.16	-165	-172.52	438.66	-116.98	-140.97	340.8	-47.477	-168.67	173.02	-29.974	-169.56	252.86	-99.095	-156.95	256.34	-39.318	-216.24	83.9	9.3781	-35.125	27.434	-24.537	-217.14	416.9	156.21	-236.87	734.2	202.77	-255.04	1001.6	250.19	-497.87	48.928	97.414	-378.56	319.15	163.97	-361.56	1204.5	3.0834	-310.93	1031.4	-247.53	-522.12	92.292	62.133	-531.76	225.94	56.143	-195.57	432.96	14.234	-379.31	959.51	-39.953	-360.26	1290.5	71.082	-311.91	779.79	-273.94	-121.99	23.922	-80.688	-277.25	1524.8	61.494	-553.78	229.86	136.04	-284.67	36.16	-29.461	-378.1	951.19	59.676	-598.44	260.21	93.201	-227.65	63.344	-70.672	-280.96	993.82	174.3	-277.13	1410.8	-3.4477	-91.378	32.032	2.7185	-323.23	1010.1	-176.77
195	0.975	-122.95	1581.9	-52.789	-129.33	1585.4	46.526	-263.66	1515.5	-81.63	-163.36	1304.3	-2.5315	-146.43	1168.8	0.6496	-196.59	909.52	-115.69	-200.04	908.32	133.38	-232.68	1339.6	163.85	-239.27	1169.5	215.49	-183.88	885.94	270.68	-163.63	767.65	271.27	-108.98	787.06	234.55	-107.38	718.95	282.5	-233.34	1354.5	-156.55	-261.93	1183.8	-220.29	-281.73	898.24	-283.05	-228.57	784.81	-279.26	-259.32	722.05	-315.5	-209.62	567.64	175.28	-168.92	663.43	162.53	-220.64	650.74	187.21	-214.18	414.91	26.066	-264.39	325.22	124.65	-415.63	240.19	115.17	-340.6	282.11	121.59	-531.02	113.06	140.95	-226.99	740.9	-183.23	-197.07	575.68	-143.24	-156.95	672.86	-148.45	-213.27	657.75	-165.1	-170.67	438.48	-117.14	-139.62	340.44	-47.831	-168.13	172.83	-30.243	-168.87	252.65	-99.349	-156.04	256.07	-39.606	-216.11	83.975	9.2915	-35.176	27.484	-24.636	-203.15	419.41	155.86	-229.18	736.01	202.8	-249.09	1002.9	249.68	-477.49	50.268	96.944	-363.51	320.53	163.24	-354.74	1205.8	2.4519	-300.88	1032.4	-248.71	-502.87	92.788	61.613	-515.73	225.87	55.214	-193.82	432.84	14.055	-372.23	960.87	-40.64	-353.71	1291.7	70.424	-297.28	780.64	-275.12	-122.01	23.916	-80.767	-270.16	1526.5	61.269	-537.89	229.43	135.16	-284.7	36.243	-29.533	-371.31	952.54	59.01	-583.63	258.57	92.167	-227.7	63.357	-70.765	-274.98	995.2	173.8	-270.45	1412.1	-3.7226	-91.415	32.108	2.6422	-313.55	1010.8	-178.12
196	0.98	-115.64	1583	-52.95	-122.05	1586.6	46.359	-256.57	1517	-81.815	-156.64	1305.7	-2.5688	-139.75	1170.2	0.93011	-189.43	910.37	-115.61	-193.39	910.06	133.35	-226.69	1341	163.68	-233.33	1170.8	215.22	-179.33	886.75	270.49	-160.36	768.2	271.41	-105.5	786.87	234.61	-104.67	718.76	282.61	-226.22	1356	-156.71	-253.58	1185.1	-220.81	-269.09	899.42	-283.98	-213.97	787.01	-279.62	-243.17	723.85	-316.36	-198.98	569.89	175.15	-159.67	666.34	162.96	-211.48	652.83	187.2	-199.97	417.56	25.619	-249.38	327.32	124.1	-399.74	240.89	114.55	-325.15	283.53	121	-511.94	112.75	140.37	-221.04	741.67	-183.17	-193.28	576.02	-143.4	-151.96	672.74	-148.2	-208.39	658.33	-165.16	-168.89	438.33	-117.27	-138.36	340.12	-48.13	-167.63	172.66	-30.471	-168.18	252.47	-99.569	-155.2	255.83	-39.846	-215.98	84.064	9.1995	-35.227	27.531	-24.732	-189.25	422.07	155.55	-221.55	737.84	202.88	-243.21	1004.3	249.2	-456.73	51.408	96.492	-348.48	321.83	162.53	-347.92	1206.9	1.8152	-290.88	1033.4	-249.86	-483.28	92.995	61.115	-499.49	225.4	54.288	-192.21	432.74	13.876	-365.14	962.2	-41.308	-347.17	1292.9	69.759	-282.61	781.6	-276.19	-122.02	23.905	-80.843	-263.1	1528.1	61.07	-521.83	228.6	134.26	-284.73	36.345	-29.604	-364.49	953.89	58.376	-568.63	256.46	91.1	-227.72	63.388	-70.858	-269.1	996.61	173.32	-263.8	1413.4	-3.9986	-91.445	32.178	2.5665	-303.88	1011.7	-179.42
197	0.985	-108.35	1584	-53.076	-114.79	1587.7	46.227	-249.51	1518.6	-81.979	-149.93	1307	-2.6157	-133.08	1171.6	1.2153	-182.27	911.2	-115.5	-186.71	911.79	133.33	-220.73	1342.3	163.49	-227.41	1172.1	214.93	-174.83	887.59	270.31	-157.11	768.8	271.58	-102.04	786.76	234.71	-101.97	718.65	282.75	-219.13	1357.4	-156.88	-245.28	1186.5	-221.34	-256.47	900.68	-284.85	-199.37	789.36	-279.91	-227	725.8	-317.12	-188.37	572.21	175.05	-150.47	669.3	163.42	-202.36	654.95	187.24	-185.87	420.28	25.224	-234.4	329.45	123.64	-383.73	241.39	113.98	-309.66	284.86	120.48	-492.6	112.12	139.81	-215.09	742.42	-183.07	-189.53	576.36	-143.55	-147	672.61	-147.89	-203.55	658.89	-165.18	-167.19	438.2	-117.38	-137.18	339.84	-48.368	-167.16	172.53	-30.655	-167.5	252.32	-99.756	-154.44	255.62	-40.035	-215.85	84.17	9.1024	-35.276	27.573	-24.825	-175.48	424.83	155.26	-213.98	739.67	202.99	-237.41	1005.6	248.75	-435.66	52.344	96.072	-333.48	323.04	161.86	-341.12	1208.1	1.1742	-280.92	1034.5	-251	-463.39	92.923	60.649	-483.05	224.56	53.367	-190.73	432.66	13.697	-358.04	963.5	-41.951	-340.65	1294	69.087	-267.92	782.69	-277.17	-122.02	23.89	-80.917	-256.06	1529.8	60.895	-505.61	227.38	133.34	-284.75	36.467	-29.675	-357.64	955.23	57.776	-553.43	253.89	90.004	-227.73	63.438	-70.95	-263.31	998.03	172.87	-257.17	1414.7	-4.2794	-91.467	32.241	2.4927	-294.24	1012.5	-180.67
198	0.99	-101.08	1585.1	-53.17	-107.56	1588.7	46.129	-242.46	1520.1	-82.126	-143.23	1308.4	-2.6739	-126.41	1173	1.4981	-175.11	912	-115.38	-180	913.49	133.3	-214.77	1343.7	163.28	-221.51	1173.4	214.64	-170.4	888.46	270.16	-153.86	769.44	271.76	-98.594	786.72	234.84	-99.278	718.6	282.91	-212.07	1358.8	-157.04	-237.03	1187.9	-221.86	-243.86	902.02	-285.65	-184.79	791.83	-280.12	-210.83	727.9	-317.78	-177.79	574.56	174.98	-141.32	672.29	163.92	-193.26	657.07	187.31	-171.87	423.04	24.877	-219.46	331.61	123.28	-367.6	241.7	113.46	-294.12	286.09	120.03	-473.04	111.18	139.25	-209.15	743.14	-182.93	-185.82	576.71	-143.67	-142.08	672.47	-147.55	-198.72	659.41	-165.16	-165.55	438.09	-117.48	-136.07	339.6	-48.546	-166.73	172.42	-30.797	-166.8	252.18	-99.907	-153.74	255.43	-40.172	-215.71	84.291	9.0011	-35.322	27.611	-24.914	-161.83	427.7	155.01	-206.44	741.5	203.14	-231.69	1006.9	248.31	-414.32	53.073	95.693	-318.52	324.14	161.21	-334.31	1209.2	0.52991	-271.02	1035.7	-252.11	-443.23	92.578	60.219	-466.42	223.33	52.457	-189.39	432.63	13.515	-350.94	964.77	-42.565	-334.12	1295.1	68.408	-253.2	783.9	-278.05	-122.02	23.872	-80.987	-249.04	1531.3	60.74	-489.23	225.77	132.41	-284.76	36.609	-29.745	-350.76	956.56	57.214	-538.01	250.88	88.885	-227.72	63.509	-71.042	-257.61	999.45	172.43	-250.57	1415.9	-4.568	-91.482	32.298	2.4221	-284.63	1013.4	-181.88
199	0.995	-93.839	1586.1	-53.236	-100.35	1589.8	46.06	-235.44	1521.7	-82.257	-136.55	1309.7	-2.7444	-119.73	1174.4	1.772	-167.95	912.78	-115.24	-173.27	915.15	133.26	-208.83	1345	163.05	-215.63	1174.6	214.34	-166.02	889.34	270.03	-150.62	770.11	271.95	-95.159	786.74	235.01	-96.589	718.61	283.1	-205.02	1360.2	-157.21	-228.82	1189.3	-222.38	-231.29	903.43	-286.4	-170.22	794.44	-280.27	-194.67	730.14	-318.33	-167.24	576.95	174.93	-132.22	675.29	164.44	-184.18	659.19	187.43	-157.97	425.83	24.577	-204.56	333.77	123.01	-351.36	241.81	112.99	-278.56	287.22	119.66	-453.27	109.96	138.72	-203.2	743.83	-182.77	-182.14	577.05	-143.77	-137.19	672.31	-147.17	-193.92	659.91	-165.1	-163.95	438.01	-117.55	-135.03	339.39	-48.664	-166.32	172.34	-30.897	-166.09	252.07	-100.03	-153.1	255.28	-40.259	-215.57	84.428	8.8974	-35.364	27.644	-24.999	-148.32	430.63	154.78	-198.94	743.31	203.33	-226.04	1008.2	247.9	-392.76	53.598	95.361	-303.62	325.12	160.59	-327.52	1210.3	-0.11666	-261.17	1036.8	-253.2	-422.85	91.974	59.829	-449.61	221.75	51.563	-188.17	432.63	13.332	-343.83	966	-43.146	-327.61	1296.2	67.722	-238.47	785.22	-278.82	-122.01	23.852	-81.053	-242.03	1532.8	60.602	-472.69	223.79	131.47	-284.75	36.771	-29.812	-343.86	957.87	56.69	-522.39	247.46	87.748	-227.7	63.6	-71.132	-251.99	1000.9	172.02	-243.98	1417.1	-4.8665	-91.491	32.347	2.3559	-275.05	1014.3	-183.05
200	1	-86.623	1587.1	-53.275	-93.171	1590.7	46.02	-228.43	1523.1	-82.375	-129.88	1311	-2.8283	-113.05	1175.8	2.0305	-160.79	913.53	-115.1	-166.51	916.75	133.22	-202.88	1346.2	162.8	-209.76	1175.8	214.04	-161.69	890.22	269.92	-147.39	770.79	272.15	-91.725	786.8	235.23	-93.897	718.66	283.31	-198	1361.6	-157.39	-220.64	1190.7	-222.91	-218.75	904.89	-287.08	-155.68	797.16	-280.34	-178.51	732.51	-318.77	-156.73	579.34	174.9	-123.17	678.3	164.99	-175.12	661.28	187.59	-144.18	428.63	24.321	-189.74	335.93	122.84	-335.02	241.73	112.58	-262.98	288.25	119.36	-433.34	108.46	138.22	-197.26	744.48	-182.57	-178.49	577.38	-143.85	-132.33	672.13	-146.75	-189.13	660.37	-165	-162.39	437.94	-117.61	-134.05	339.21	-48.726	-165.92	172.28	-30.958	-165.36	251.98	-100.11	-152.5	255.15	-40.3	-215.43	84.58	8.7937	-35.401	27.673	-25.078	-134.96	433.63	154.58	-191.45	745.09	203.55	-220.48	1009.5	247.5	-371.02	53.924	95.08	-288.77	325.98	160.01	-320.73	1211.3	-0.76444	-251.37	1038	-254.28	-402.25	91.122	59.479	-432.62	219.81	50.689	-187.05	432.69	13.149	-336.73	967.19	-43.69	-321.09	1297.2	67.029	-223.74	786.64	-279.51	-121.99	23.83	-81.114	-235.04	1534.3	60.478	-456	221.45	130.54	-284.74	36.955	-29.875	-336.94	959.14	56.208	-506.54	243.64	86.601	-227.66	63.711	-71.218	-246.44	1002.3	171.62	-237.4	1418.3	-5.1762	-91.494	32.388	2.2954	-265.5	1015.3	-184.18
201	1.005	-79.434	1588.1	-53.292	-86.016	1591.7	46.003	-221.44	1524.6	-82.483	-123.22	1312.3	-2.9258	-106.34	1177.1	2.2676	-153.65	914.24	-114.95	-159.74	918.3	133.18	-196.94	1347.4	162.52	-203.91	1177	213.73	-157.42	891.1	269.83	-144.16	771.47	272.35	-88.285	786.9	235.49	-91.198	718.75	283.56	-190.98	1362.9	-157.57	-212.49	1192.1	-223.44	-206.25	906.41	-287.71	-141.18	799.99	-280.35	-162.36	734.99	-319.1	-146.26	581.73	174.9	-114.16	681.29	165.57	-166.09	663.33	187.78	-130.5	431.44	24.105	-174.98	338.07	122.77	-318.59	241.45	112.21	-247.38	289.17	119.13	-413.23	106.71	137.74	-191.32	745.09	-182.34	-174.87	577.7	-143.91	-127.49	671.93	-146.3	-184.36	660.8	-164.87	-160.86	437.9	-117.66	-133.11	339.07	-48.739	-165.55	172.25	-30.986	-164.62	251.91	-100.17	-151.94	255.05	-40.299	-215.28	84.747	8.6926	-35.43	27.697	-25.151	-121.76	436.65	154.41	-183.97	746.83	203.8	-214.99	1010.7	247.13	-349.13	54.061	94.848	-273.99	326.69	159.46	-313.94	1212.2	-1.4125	-241.63	1039.2	-255.34	-381.47	90.038	59.169	-415.46	217.54	49.84	-186.01	432.78	12.969	-329.62	968.31	-44.196	-314.57	1298.1	66.328	-209	788.16	-280.1	-121.98	23.807	-81.168	-228.07	1535.7	60.365	-439.15	218.77	129.61	-284.72	37.163	-29.929	-330	960.37	55.766	-490.46	239.45	85.453	-227.6	63.845	-71.298	-240.96	1003.7	171.22	-230.83	1419.4	-5.4978	-91.491	32.423	2.2414	-256.01	1016.2	-185.29
